<?xml version="1.0" encoding="UTF-8" standalone="no"?>
<!-- Created with Inkscape (http://www.inkscape.org/) -->

<svg
   xmlns:dc="http://purl.org/dc/elements/1.1/"
   xmlns:cc="http://creativecommons.org/ns#"
   xmlns:rdf="http://www.w3.org/1999/02/22-rdf-syntax-ns#"
   xmlns:svg="http://www.w3.org/2000/svg"
   xmlns="http://www.w3.org/2000/svg"
   xmlns:sodipodi="http://sodipodi.sourceforge.net/DTD/sodipodi-0.dtd"
   xmlns:inkscape="http://www.inkscape.org/namespaces/inkscape"
   version="1.1"
   id="svg2"
   width="2000.2841"
   height="751.6991"
   viewBox="0 0 2000.2841 751.6991"
   sodipodi:docname="2000px-Facebook_New_Logo_(2015).svg"
   inkscape:version="0.92.4 (5da689c313, 2019-01-14)">
  <metadata
     id="metadata8">
    <rdf:RDF>
      <cc:Work
         rdf:about="">
        <dc:format>image/svg+xml</dc:format>
        <dc:type
           rdf:resource="http://purl.org/dc/dcmitype/StillImage" />
        <dc:title></dc:title>
      </cc:Work>
    </rdf:RDF>
  </metadata>
  <defs
     id="defs6" />
  <sodipodi:namedview
     pagecolor="#ffffff"
     bordercolor="#666666"
     borderopacity="1"
     objecttolerance="10"
     gridtolerance="10"
     guidetolerance="10"
     inkscape:pageopacity="0"
     inkscape:pageshadow="2"
     inkscape:window-width="1920"
     inkscape:window-height="1001"
     id="namedview4"
     showgrid="false"
     fit-margin-top="0"
     fit-margin-left="0"
     fit-margin-right="0"
     fit-margin-bottom="0"
     inkscape:zoom="0.444"
     inkscape:cx="876.08977"
     inkscape:cy="309.03636"
     inkscape:window-x="-9"
     inkscape:window-y="-9"
     inkscape:window-maximized="1"
     inkscape:current-layer="svg2" />
  <path
     style="fill:#3b5998;fill-opacity:1;stroke:#3b5998;stroke-width:3.18516564;stroke-opacity:1"
     d="M 1.5925828,375.84955 V 1.5925828 H 1000.142 1998.6915 V 375.84955 750.10652 H 1000.142 1.5925828 Z M 454.66479,530.0624 c 3.95132,-2.03274 11.12588,-7.37219 15.94344,-11.8655 l 8.75921,-8.16964 v 11.744 11.74399 h 31.85165 31.85166 V 428.40478 323.29431 h -31.85166 -31.85165 v 11.47804 11.47803 l -11.50192,-10.09883 c -15.27966,-13.41569 -24.57814,-16.6808 -47.42365,-16.65261 -53.26769,0.0656 -84.26884,39.54437 -84.36908,107.44035 -0.10766,72.96373 33.34247,112.53913 91.51809,108.27633 10.93932,-0.80158 23.12258,-3.12051 27.07391,-5.15322 z m 261.2012,-1.47619 c 8.32124,-2.87392 15.12954,-6.01102 15.12954,-6.97134 0,-2.2752 -13.17573,-46.77015 -14.17084,-47.85549 -0.41872,-0.45666 -6.89837,1.33499 -14.39927,3.98145 -44.21424,15.5997 -73.36169,-5.35401 -73.35026,-52.73054 0.006,-23.53592 6.91111,-40.48021 19.10606,-46.88185 7.9638,-4.18056 47.95442,-3.63689 62.21842,0.84585 5.70724,1.7936 7.33999,-0.64044 13.72211,-20.45631 3.98426,-12.37067 6.38253,-23.88616 5.32951,-25.58997 -3.94355,-6.38084 -35.39209,-12.81886 -62.61768,-12.81886 -62.05359,0 -96.45991,28.23895 -104.63473,85.87882 -5.21409,36.76404 2.55797,73.78363 20.402,97.17838 8.96567,11.7546 34.72946,26.36225 53.54847,30.3611 18.81417,3.99786 61.49386,1.35232 79.71667,-4.94124 z m 191.10994,-1.36835 c 10.07309,-3.79554 18.3147,-7.5784 18.3147,-8.40639 0,-9.65223 -11.2672,-42.6292 -14.56506,-42.6292 -2.32931,0 -12.48948,2.14998 -22.57814,4.77775 -10.08866,2.62776 -27.42966,4.77774 -38.53557,4.77774 -29.30209,0 -45.35752,-10.07311 -45.35752,-28.45709 0,-6.43178 1.44281,-6.57973 64.16073,-6.57973 h 64.16077 l -1.68161,-32.94831 c -3.47836,-68.15356 -31.96744,-97.64348 -94.3296,-97.64348 -46.6536,0 -76.19707,15.1641 -91.8455,47.14249 -8.21101,16.77968 -8.88559,21.04579 -8.91455,56.37539 -0.0379,46.21689 4.40913,63.58244 21.15365,82.60521 19.67833,22.35578 49.69603,30.94105 101.44392,29.01361 21.01847,-0.78285 35.85207,-3.23448 48.57378,-8.02799 z m 204.46497,1.39249 c 39.8709,-18.91998 58.7662,-77.58974 44.9659,-139.61903 -6.8514,-30.79613 -19.1797,-48.01032 -43.2133,-60.3394 -15.4641,-7.933 -20.2984,-8.85797 -41.6182,-7.96291 -19.9963,0.83954 -26.3969,2.51845 -37.4257,9.81713 l -13.304,8.8044 v -61.96796 c 0,-34.08237 -1.075,-62.58019 -2.3889,-63.32849 -2.425,-1.38115 -47.37692,3.00328 -60.54838,5.90563 l -7.19688,1.58585 0.82655,155.20856 0.82655,155.20854 h 33.44424 c 32.41292,0 33.47612,-0.22456 34.47692,-7.28027 l 1.0327,-7.2803 10.9564,6.7714 c 6.026,3.72429 14.8779,8.03818 19.6709,9.5864 13.0257,4.2076 45.7906,1.3937 59.4952,-5.10955 z m 217.7512,-1.5047 c 18.9485,-8.15145 36.5497,-26.12706 46.362,-47.34835 5.7777,-12.49538 6.7951,-20.50642 6.7241,-52.9451 -0.074,-33.80343 -0.9682,-40.02435 -7.7344,-53.81309 -17.389,-35.43691 -42.7377,-50.25347 -89.3295,-52.21394 -25.495,-1.07277 -33.2679,-0.15767 -49.37,5.81328 -26.7643,9.9244 -46.3791,30.43511 -53.5516,55.9975 -6.0548,21.57928 -7.1887,69.40613 -2.0815,87.79448 8.2486,29.69858 37.8342,56.2075 70.4041,63.08258 22.3386,4.71539 59.8871,1.67269 78.5768,-6.36736 z m 222.3729,0.21117 c 20.2629,-8.94248 37.2331,-25.77356 46.395,-46.01472 6.3894,-14.11582 7.3635,-21.35414 7.3635,-54.71512 0,-36.47305 -0.4923,-39.40987 -9.5886,-57.19615 -17.1138,-33.46348 -47.68,-49.5377 -94.2304,-49.5542 -44.3414,-0.0159 -77.7207,18.8264 -92.2224,52.05809 -10.9458,25.08337 -12.657,79.82038 -3.2721,104.67235 10.9904,29.10368 36.2346,50.20146 68.224,57.01813 21.4691,4.57485 59.8017,1.46762 77.331,-6.26838 z m 142.0617,-39.58941 0.8814,-45.78787 28.8003,44.99158 28.8002,44.99155 35.6994,0.9006 c 19.6346,0.49533 35.6993,0.0838 35.6993,-0.91459 0,-0.99839 -13.6784,-23.30576 -30.3964,-49.57197 -16.7181,-26.26622 -31.0822,-49.5435 -31.9202,-51.72732 -0.838,-2.18384 12.8404,-26.42432 30.3965,-53.86777 17.5561,-27.44345 31.9201,-50.74291 31.9201,-51.77656 0,-1.03365 -16.0647,-1.47409 -35.6993,-0.97877 l -35.6994,0.90061 -28.8002,44.98256 -28.8003,44.98257 -0.8407,-101.7198 c -0.7834,-94.80056 -1.2168,-101.61559 -6.3703,-100.18759 -3.0413,0.84272 -14.1296,2.4241 -24.6406,3.51418 -10.5111,1.09008 -23.0527,2.7547 -27.8702,3.69915 l -8.7592,1.7172 v 155.82005 155.82003 h 33.3591 33.359 z M 285.07233,455.47869 V 380.6273 h 23.88874 c 20.55273,0 23.91623,-0.77839 24.08565,-5.57404 0.1083,-3.06572 1.23878,-15.96565 2.51217,-28.66649 l 2.31524,-23.09246 h -26.4009 -26.4009 v -16.80969 c 0,-9.93088 1.99357,-19.6559 4.87166,-23.76495 5.28438,-7.54451 22.46356,-13.52716 38.92437,-13.55541 l 10.35179,-0.0178 v -25.29335 c 0,-15.87021 -1.38778,-26.15103 -3.72502,-27.59553 -2.04876,-1.26621 -16.11047,-2.37816 -31.24823,-2.47102 -24.3281,-0.14922 -29.71937,0.92817 -46.44134,9.28084 -13.05846,6.52273 -21.87784,13.7244 -28.47363,23.2508 -8.77498,12.67383 -9.64492,16.38128 -10.65026,45.38861 l -1.09477,31.58746 h -20.4051 -20.4051 v 28.6665 28.66649 h 20.70357 20.70358 v 74.85139 74.85139 h 33.44424 33.44424 z"
     id="path28"
     inkscape:connector-curvature="0" />
  <path
     style="fill:#3b5998;fill-opacity:1;stroke:#3b5998;stroke-width:0.79629141;stroke-opacity:1"
     d="m 429.89963,481.99472 c -9.17137,-2.27623 -17.22669,-8.55687 -21.29484,-16.60338 -1.15984,-2.29407 -2.86512,-7.6674 -3.78951,-11.94074 -1.48112,-6.84703 -1.64444,-9.73119 -1.37528,-24.28689 0.58987,-31.89999 4.08576,-42.94962 16.26097,-51.39698 10.10588,-7.01163 29.50489,-7.12912 40.26824,-0.24389 9.13783,5.8454 13.78163,14.265 14.93821,27.0842 0.94794,10.50681 0.93998,37.01759 -0.0141,46.82369 -1.58321,16.27286 -10.8857,27.85678 -24.7599,30.83226 -5.19335,1.11378 -15.19985,0.98111 -20.23382,-0.26827 z"
     id="path30"
     inkscape:connector-curvature="0" />
  <path
     style="fill:#3b5998;fill-opacity:1;stroke:#3b5998;stroke-width:0.79629141;stroke-opacity:1"
     d="m 801.58952,398.26955 c 0.24966,-4.18467 0.79843,-8.03673 1.21948,-8.56013 0.42105,-0.5234 1.01516,-2.11892 1.32024,-3.54559 0.67741,-3.16788 5.61656,-9.89311 9.27671,-12.63131 1.48226,-1.1089 5.02417,-3.1363 7.87091,-4.50534 4.92729,-2.36959 5.654,-2.49098 15.12954,-2.52735 9.35629,-0.0359 10.26427,0.10248 15.12954,2.30598 11.97637,5.42416 17.01802,12.5552 18.32842,25.92416 0.40782,4.16062 0.75073,8.37101 0.76203,9.35642 l 0.0205,1.79166 h -34.75567 -34.75567 z"
     id="path32"
     inkscape:connector-curvature="0" />
  <path
     style="fill:#3b5998;fill-opacity:1;stroke:#3b5998;stroke-width:0.79629141;stroke-opacity:1"
     d="m 801.06431,406.02833 c -0.21958,-0.3553 -0.0723,-4.10202 0.32736,-8.32605 1.30375,-13.78043 5.8141,-22.20098 17.07311,-28.1528 5.56183,-4.12929 11.2554,-3.73485 17.89185,-3.73485 10.43163,0 10.95823,0.72209 16.15343,3.18316 6.7455,3.19548 12.68256,8.68953 14.86003,13.75118 1.87201,4.35162 3.23731,12.45143 3.26107,19.34669 l 0.0158,4.57868 h -34.59168 c -19.02543,0 -34.77135,-0.2907 -34.99094,-0.64601 z"
     id="path34"
     inkscape:connector-curvature="0"
     sodipodi:nodetypes="ccccscccscc" />
  <path
     style="fill:#3b5998;fill-opacity:1;stroke:#3b5998;stroke-width:0.79629141;stroke-opacity:1"
     d="m 1045.831,482.06827 c -2.4087,-0.55677 -5.8129,-1.93443 -7.5647,-3.06148 -7.9982,-5.14559 -15.684,-16.61951 -18.0633,-26.96599 -1.2798,-5.5653 -1.2894,-42.07825 -0.013,-49.2636 3.7661,-21.20065 16.9937,-31.4572 38.7798,-30.06965 8.0745,0.51426 12.0916,1.56167 16.7222,4.36009 7.9797,4.82247 12.3094,11.3884 14.8774,22.5613 1.5209,6.61678 1.713,9.83157 1.7301,28.94341 0.019,20.8396 -0.046,21.73846 -2.1016,29.26886 -3.1888,11.68146 -8.3584,17.95529 -18.6938,22.687 -3.834,1.75525 -5.8991,2.12595 -12.9281,2.32065 -4.8199,0.1335 -10.2216,-0.19733 -12.745,-0.78059 z"
     id="path36"
     inkscape:connector-curvature="0" />
  <path
     style="fill:#3b5998;fill-opacity:1;stroke:#3b5998;stroke-width:0.79629141;stroke-opacity:1"
     d="m 1270.3919,482.24345 c -10.0522,-1.96837 -20.4772,-10.47726 -23.8362,-19.45504 -3.276,-8.75583 -3.5217,-11.23241 -3.5141,-35.41049 -0.1952,-10.41853 -1.0101,-20.37974 2.2284,-30.25591 3.2769,-9.99354 7.9317,-16.02462 15.8867,-20.58371 9.4486,-5.41514 27.8112,-5.24504 37.6771,0.34901 8.4271,4.77819 14.901,14.33752 17.0676,25.20186 1.2784,6.41029 1.2639,38.19128 -0.022,48.2587 -2.1341,16.70874 -12.0048,28.98746 -25.656,31.91512 -4.6457,0.99633 -14.6917,0.98643 -19.829,-0.0195 z"
     id="path38"
     inkscape:connector-curvature="0"
     sodipodi:nodetypes="ccccccccccc" />
  <path
     style="fill:#3b5998;fill-opacity:1;stroke:#3b5998;stroke-width:0.79629141;stroke-opacity:1"
     d="m 1493.745,482.24622 c -8.1737,-1.82741 -16.6957,-7.45425 -21.0409,-13.89269 -3.921,-5.80977 -5.644,-12.88465 -6.4885,-26.64237 -1.4287,-23.27405 0.1768,-41.24606 4.5196,-50.59418 6.8909,-14.833 23.3974,-21.61104 42.6782,-17.52482 12.2492,2.59601 22.2759,13.28624 25.4273,27.10999 1.4629,6.41731 1.4355,43.73411 -0.038,52.05448 -2.759,15.57595 -12.383,26.66756 -25.5983,29.50172 -4.7054,1.00913 -14.9197,1.00276 -19.4591,-0.0121 z"
     id="path40"
     inkscape:connector-curvature="0" />
</svg>
